<svg xmlns="http://www.w3.org/2000/svg" viewBox="0 0 409.25 225.57"><defs><style>.cls-1{fill:#030303;}.cls-2{fill:#f50;}.cls-3{fill:#e4e7ea;}.cls-4{fill:#030302;}.cls-5{fill:#ec8e66;}.cls-6{fill:#cdd0da;}.cls-7{fill:#514f4f;}.cls-8{fill:#e1d8d6;}.cls-9{fill:#282727;}.cls-10{fill:#efeae9;}.cls-11{fill:#c9ccd6;}.cls-12{fill:#e0e3e7;}.cls-13{fill:#dc7d63;}.cls-14{fill:#d97b62;}</style></defs><g id="Capa_2" data-name="Capa 2"><g id="Capa_1-2" data-name="Capa 1"><path class="cls-1" d="M0,187.83c3.25-4.05,5-8.94,7.44-13.43,3.43-6.28,6.65-12.68,10-19,.8-1.51,1.44-3.44,2.73-4.32,4.1-2.77,3.75-6.72,3.77-10.83.07-14-.56-27.92.38-41.86,1.1-16.29,6.44-31.66,10.62-47.27a14.42,14.42,0,0,1,5.64-8.41,14,14,0,0,1,17.63.84,78.86,78.86,0,0,1,6,6.41c2.16,2.43,2.75,5.1,1,8-3.78,3.43-6.72,3.33-10.16-.4C53.9,56.4,52.91,55.14,51.82,54c-2.86-3.06-4.49-2.69-5.64,1.41-2.38,8.55-4.79,17.09-7,25.69a109.63,109.63,0,0,0-3.35,25.58c0,1.93.31,2.87,2.56,2.84,11.67-.15,23.35-.16,35-.23,19,.46,31.14,14.82,31.41,29.67.07,3.94,1.9,4.61,5.18,4.95,19.07,1.93,37.6,6.63,56,11.76,17.23,4.81,33.71,12,51.26,15.92,19.6,4.38,39.22,8.24,59.41,8.22,33.49,0,66-6,97.88-15.9a6.71,6.71,0,0,0,3.66-2.84,30,30,0,0,1,13-10.8c2.18-.92,2.52-2.2,2.12-4.32a32.16,32.16,0,0,0-11.68-19.77c-3-2.4-4.5-5.19-3-9,3.7-3.62,6.19-3.88,10-.81a43.51,43.51,0,0,1,16.89,30.86,12,12,0,0,0,.57,3.52c4.64,10.71,3.39,21.73.5,32.31-2.76,10.11-10,17.35-20.14,20.48-24,7.45-48.09,14.94-72.46,21.28-3.52.91-7.13.72-10.71.72q-51.65,0-103.29,0c-9.92,0-19.45-2.53-29.11-4.19-3.8-.66-4.93-3.63-4.92-7.15,1.8-3.71,4.54-5.17,8.74-4.2,4.39,1,8.9,1.48,13.32,2.39a5.67,5.67,0,0,0,6-1.9c3.43-3.7,7.2-7.09,10.74-10.7,8.07-8.23,17.41-10.34,28.4-6.71,19.51,6.44,39.17,12.44,58.66,18.92a35.88,35.88,0,0,0,20,.91C327.06,209.13,342,204.31,357,200a3.24,3.24,0,0,0,2.35-1.87c2.06-4.44,4.2-8.84,6.32-13.26l3.66-6.81L344,184.62c-1.18.16-2.37.26-3.53.5a332.83,332.83,0,0,1-41.8,5.87c-37.25,2.89-73.38-2.62-108.58-14.77-21.58-7.45-43.2-14.71-65.84-18.3-15-2.37-30-4.29-45.22-3.55-12.65-.67-25.2,1.14-37.79,1.62-9.11.35-14.37,4.15-17.25,12.46-1.07,3.1-3.07,5.87-4.48,8.86-1,2.1-2.64,3.94-2.84,6.51h48c.4.05.79.15,1.18.16,21,.55,31.05,7.8,38.13,27.61.64,1.8,1.68,2,3.26,2,5-.07,10.1-.06,15.14,0,1.75,0,2.64-.25,3.29-2.31,1.76-5.57,6.07-8.15,12-7.59a89.37,89.37,0,0,1,9,1.47c5.06,1,6.08,2.24,6.51,7.42-1.74,3.76-4.47,5.38-8.65,4.25-1.66-.45-3.41-.57-5.1-.92s-2.46.05-3.06,2c-1.58,5-5.15,7.6-10.44,7.61-30.17.06-60.35.26-90.53-.08-15.82-.17-29.09-10.45-34.3-25.26-.23-.69,0-1.68-1.08-1.9Zm381.15-6.54-6.51,12.77c10-.53,17.79-6.24,20.72-14.93,2.39-5.85.89-11.89,1.41-18.33a19.49,19.49,0,0,0-7.26,5.19C385.65,170.5,383.6,176,381.15,181.29ZM73.45,142c5.71.1,11.42.14,17.12.35,2.05.07,2.78-.41,2.59-2.64-.89-10.91-8.89-18.35-19.73-18.13-11.69-.06-23.39-.09-35.08-.22-1.83,0-2.57.41-2.53,2.41.12,6.24.1,12.49,0,18.74,0,1.76.48,2.32,2.26,2.07C49.82,142.94,61.63,142.43,73.45,142ZM62.3,196C47,196,31.76,196,16.48,195.84c-3,0-3.47,1.16-2.28,3.64,4,8.34,10.53,13.48,19.8,13.8,12.34.42,24.7.06,37.05,0,6.09,0,12.17.05,18.25.14,2.23,0,2.94-.74,1.91-2.84a28.36,28.36,0,0,0-3.45-5.76C81.07,196.66,72,195.49,62.3,196Zm146,17.13h46.24a287.3,287.3,0,0,0-29.05-9.65,8.55,8.55,0,0,0-3.49,0C216,204.34,212.64,208.85,208.34,213.17Z"/><path class="cls-2" d="M378.68,117.13c-1.49,3.84,0,6.63,3,9a32.16,32.16,0,0,1,11.68,19.77c.4,2.12.06,3.4-2.12,4.32a30,30,0,0,0-13,10.8,6.71,6.71,0,0,1-3.66,2.84c-31.88,9.88-64.39,15.86-97.88,15.9-20.19,0-39.81-3.84-59.41-8.22-17.55-3.93-34-11.11-51.26-15.92-18.4-5.13-36.93-9.83-56-11.76-3.28-.34-5.11-1-5.18-4.95-.27-14.85-12.42-29.21-31.41-29.67a112.66,112.66,0,0,1,1.34-19c.83-6,3-11.79,3.53-17.87,1.42.37,2.83.73,4.24,1.11a62.7,62.7,0,0,0,45-4.37c6.92-3.37,12.63-8.26,18.27-13.33,4.74-4.26,8.7-4.66,14-1.8-2.14,2.72-4.41,5.3-6.33,8.11s-1.24,5.44,1.14,7.52a5.39,5.39,0,0,0,7.31.2,19.67,19.67,0,0,0,3-3.14c5.59-6.63,5.58-6.64,13.12-2,5.05,3.08,5.05,3.08,1.68,8.07-2.14,3.16-1.86,6.51.71,8.57,2.39,1.92,5.77,1.57,8.33-.78,2.09-1.92,3.16-5.88,6-5.73s5.43,2.53,8.14,3.94c.47.24.93.53,1.42.73,2.08.86,2.92,1.67,1,3.9-2.9,3.33-2.69,7,0,9.17s6.38,1.59,9.39-1.8a11.54,11.54,0,0,0,1.27-1.54c1.46-2.44,3.07-2.75,5.81-1.51,42.56,19.38,87.73,27.43,134,30.74,4.2.3,6.95-1,8.31-5.06A31.51,31.51,0,0,1,378.68,117.13Z"/><path class="cls-3" d="M153.16,212.56c-.43-5.18-1.45-6.4-6.51-7.42a89.37,89.37,0,0,0-9-1.47c-5.9-.56-10.21,2-12,7.59-.65,2.06-1.54,2.33-3.29,2.31-5-.06-10.09-.07-15.14,0-1.58,0-2.62-.18-3.26-2C96.88,191.78,86.8,184.53,65.83,184c-.39,0-.78-.11-1.18-.16.66-1.58,1.21-3.2,2-4.71,4.24-8.19,9-16.14,12.37-24.74,15.23-.74,30.25,1.18,45.22,3.55,22.64,3.59,44.26,10.85,65.84,18.3,35.2,12.15,71.33,17.66,108.58,14.77a332.83,332.83,0,0,0,41.8-5.87c1.16-.24,2.35-.34,3.53-.5,2.86,1.48,5.81.65,8.76.46,4.3-.29,8.58-1.43,12.91-.26-2.12,4.42-4.26,8.82-6.32,13.26A3.24,3.24,0,0,1,357,200c-15,4.36-29.93,9.18-45.09,12.94a35.88,35.88,0,0,1-20-.91c-19.49-6.48-39.15-12.48-58.66-18.92-11-3.63-20.33-1.52-28.4,6.71-3.54,3.61-7.31,7-10.74,10.7a5.67,5.67,0,0,1-6,1.9c-4.42-.91-8.93-1.39-13.32-2.39-4.2-1-6.94.49-8.74,4.2C161.63,214.57,157.55,212.36,153.16,212.56Z"/><path class="cls-4" d="M364.05,113.4c-1.36,4-4.11,5.36-8.31,5.06-46.27-3.31-91.44-11.36-134-30.74-2.74-1.24-4.35-.93-5.81,1.51a11.54,11.54,0,0,1-1.27,1.54c-3,3.39-6.65,4.09-9.39,1.8s-2.85-5.84,0-9.17c1.94-2.23,1.1-3-1-3.9-.49-.2-1-.49-1.42-.73-2.71-1.41-5.37-3.79-8.14-3.94s-3.94,3.81-6,5.73c-2.56,2.35-5.94,2.7-8.33.78-2.57-2.06-2.85-5.41-.71-8.57,3.37-5,3.37-5-1.68-8.07-7.54-4.6-7.53-4.59-13.12,2a19.67,19.67,0,0,1-3,3.14,5.39,5.39,0,0,1-7.31-.2c-2.38-2.08-3-4.82-1.14-7.52s4.19-5.39,6.33-8.11c-5.27-2.86-9.23-2.46-14,1.8-5.64,5.07-11.35,10-18.27,13.33a62.7,62.7,0,0,1-44.95,4.37c-1.41-.38-2.82-.74-4.24-1.11-3.22-1.79-4.54-4.44-3.64-8.09,2.32-3.58,5.41-4,9.34-2.82,14.17,4.33,27.77,2.79,40.77-4.36,2-1.08,2.81-2.23,2.77-4.61A69.75,69.75,0,0,1,143.15,6.83c6.6-8.37,16.57-9.13,24.27-1.82q8.24,7.83,16.33,15.8c1.32,1.3,2.2,2.25,4.17.61,2.31-1.93,5.07-1.55,7.23.54,2,1.9,2.8,4.38,1.18,6.85-1.3,2-.63,3,1,4.17s3,2.58,4.57,3.84c2.4,2,4.32,5.08,8.09,1.45,1.64-1.56,4.36-.54,6.11,1.22s2.63,4.07,1.34,6.16c-1.59,2.55-.63,3.69,1.43,5A32.86,32.86,0,0,1,223,53.73c2.32,2,4.31,3.87,7.44.75,1.68-1.69,4.3-1,6.25.52,2.13,1.66,3,4.19,1.82,6.39-1.47,2.75-.14,3.59,1.76,4.9A525.72,525.72,0,0,0,289.4,96.42c6.83,3.66,14.56,3.89,21.94,5.06,15.09,2.39,30.33,3.6,45.54,5C361.6,106.91,363.08,108.37,364.05,113.4ZM140.48,44.17c6.28-3.19,13.28-6.25,19.7-2.88,7.6,4,11.06.54,14.66-4.93a15.29,15.29,0,0,1,2-2.44c1.17-1.16,1.24-2.06-.05-3.28-6.07-5.75-12-11.61-18.1-17.36-1.82-1.72-4-1.75-5.59.26-7.1,9-12.28,18.78-12.71,30.55a3.84,3.84,0,0,0-.49.27s.09.2.13.31Zm46.69-3.8c-1.5,1.73-3,3.41-4.4,5.1-4.54,5.34-4.54,5.34,1.3,8.9,7.79,4.74,7.74,4.71,13.37-2.66,1-1.35,1.14-2.06-.22-3.15-2.8-2.23-5.48-4.62-8.23-6.92C188.49,41.22,187.91,40.88,187.17,40.37Zm32,25.68c-.31-.28-.76-.72-1.25-1.1-1.47-1.14-3-2.25-4.44-3.38-5.77-4.44-5.7-4.39-10,1.43-1.12,1.51-1,2.15.65,2.92,3,1.45,5.88,3.06,8.85,4.54C214.77,71.37,219.28,68.36,219.18,66.05Zm22.17,16.73.48-.92c-3.09-2.15-6.17-4.31-9.28-6.44-3.44-2.36-3.45-2.34-5.65,1.64Z"/><path class="cls-5" d="M74.68,64.35c-.9,3.65.42,6.3,3.64,8.09-.51,6.08-2.7,11.82-3.53,17.87a112.66,112.66,0,0,0-1.34,19c-11.67.07-23.35.08-35,.23-2.25,0-2.59-.91-2.56-2.84a109.63,109.63,0,0,1,3.35-25.58c2.17-8.6,4.58-17.14,7-25.69,1.15-4.1,2.78-4.47,5.64-1.41,1.09,1.16,2.08,2.42,3.16,3.59,3.44,3.73,6.38,3.83,10.16.4C67.73,61,71.52,62.2,74.68,64.35Z"/><path class="cls-6" d="M79,154.37c-3.41,8.6-8.13,16.55-12.37,24.74-.79,1.51-1.34,3.13-2,4.71h-48c.2-2.57,1.85-4.41,2.84-6.51,1.41-3,3.41-5.76,4.48-8.86,2.88-8.31,8.14-12.11,17.25-12.46C53.82,155.51,66.37,153.7,79,154.37Z"/><path class="cls-7" d="M71.05,213.31c-12.35,0-24.71.39-37,0-9.27-.32-15.8-5.46-19.8-13.8-1.19-2.48-.75-3.67,2.28-3.64C31.76,196,47,196,62.3,196c.06,4.17,2.12,7.52,4.24,10.9C67.93,209.15,70.35,210.63,71.05,213.31Z"/><path class="cls-8" d="M73.45,142c-11.82.39-23.63.9-35.36,2.58-1.78.25-2.28-.31-2.26-2.07.09-6.25.11-12.5,0-18.74,0-2,.7-2.43,2.53-2.41,11.69.13,23.39.16,35.08.22Q73.44,131.82,73.45,142Z"/><path class="cls-9" d="M71.05,213.31c-.7-2.68-3.12-4.16-4.51-6.38-2.12-3.38-4.18-6.73-4.24-10.9,9.7-.54,18.77.63,25.46,8.82a28.36,28.36,0,0,1,3.45,5.76c1,2.1.32,2.88-1.91,2.84C83.22,213.36,77.14,213.35,71.05,213.31Z"/><path class="cls-10" d="M73.45,142q0-10.22,0-20.42c10.84-.22,18.84,7.22,19.73,18.13.19,2.23-.54,2.71-2.59,2.64C84.87,142.18,79.16,142.14,73.45,142Z"/><path class="cls-9" d="M208.34,213.17c4.3-4.32,7.62-8.83,13.7-9.65a8.55,8.55,0,0,1,3.49,0,287.3,287.3,0,0,1,29.05,9.65Z"/><path class="cls-11" d="M381.15,181.29c2.45-5.28,4.5-10.79,8.36-15.3a19.49,19.49,0,0,1,7.26-5.19c-.52,6.44,1,12.48-1.41,18.33Z"/><path class="cls-12" d="M381.15,181.29l14.21-2.16c-2.93,8.69-10.7,14.4-20.72,14.93Z"/><path class="cls-11" d="M365.66,184.82c-4.33-1.17-8.61,0-12.91.26-2.95.19-5.9,1-8.76-.46L369.32,178Z"/><path class="cls-13" d="M140.41,44.09c.44-11.77,5.62-21.58,12.72-30.55,1.59-2,3.77-2,5.59-.26,6.07,5.75,12,11.61,18.1,17.36,1.29,1.22,1.22,2.12.05,3.28a15.29,15.29,0,0,0-2,2.44c-3.6,5.47-7.06,8.92-14.66,4.93-6.42-3.37-13.42-.31-19.7,2.88Z"/><path class="cls-14" d="M187.17,40.37c.74.51,1.32.85,1.82,1.27,2.75,2.3,5.43,4.69,8.23,6.92,1.36,1.09,1.25,1.8.22,3.15-5.63,7.37-5.58,7.4-13.37,2.66-5.84-3.56-5.84-3.56-1.3-8.9C184.21,43.78,185.67,42.1,187.17,40.37Z"/><path class="cls-14" d="M219.18,66.05c.1,2.31-4.41,5.32-6.22,4.41-3-1.48-5.87-3.09-8.85-4.54-1.61-.77-1.77-1.41-.65-2.92,4.33-5.82,4.26-5.87,10-1.43,1.48,1.13,3,2.24,4.44,3.38C218.42,65.33,218.87,65.77,219.18,66.05Z"/><path class="cls-14" d="M241.35,82.78,226.9,77.06c2.2-4,2.21-4,5.65-1.64,3.11,2.13,6.19,4.29,9.28,6.44Z"/><path class="cls-13" d="M140.48,44.17l-.42.5c0-.11-.15-.3-.13-.31a4.53,4.53,0,0,1,.48-.27Z"/></g></g></svg>